<svg height="512" viewBox="0 0 512 512" width="512" xmlns="http://www.w3.org/2000/svg"><g><g fill="#57a4ff"><path d="m208 400h96v96h-96z"/><circle cx="256" cy="296" r="16"/><circle cx="256" cy="296" r="16"/><path d="m360 248h32v32h-32z" transform="matrix(-1 0 0 -1 752 528)"/><path d="m120 248h32v32h-32z" transform="matrix(-1 0 0 -1 272 528)"/><path d="m16 104h32v32h-32z" transform="matrix(-1 0 0 -1 64 240)"/><path d="m240 104h32v32h-32z" transform="matrix(-1 0 0 -1 512 240)"/><path d="m240 16h32v32h-32z" transform="matrix(-1 0 0 -1 512 64)"/><path d="m464 104h32v32h-32z" transform="matrix(-1 0 0 -1 960 240)"/></g><g fill="#004fac"><path d="m334.58 299.45-72-104a8 8 0 0 0 -13.16 0l-72 104a7.99 7.99 0 0 0 -1.01 7.08l20.49 61.47h-4.9a8 8 0 0 0 -8 8v24a8 8 0 0 0 8 8h8v88a8 8 0 0 0 8 8h96a8 8 0 0 0 8-8v-88h8a8 8 0 0 0 8-8v-24a8 8 0 0 0 -8-8h-4.9l20.49-61.47a7.99 7.99 0 0 0 -1.01-7.08zm-78.58-11.45a8 8 0 1 1 -8 8 8.011 8.011 0 0 1 8-8zm40 200h-80v-80h80zm16-96h-112v-8h112zm-13.77-24h-84.46l-20.92-62.73 55.15-79.66v46.39a8.451 8.451 0 0 0 .12 1.34 24 24 0 1 0 15.76 0 8.451 8.451 0 0 0 .12-1.34v-46.39l55.15 79.66z"/><path d="m496 96h-32a8 8 0 0 0 -8 8v8.07a8.258 8.258 0 0 0 -1-.07h-175v-8a8 8 0 0 0 -8-8h-8v-40h8a8 8 0 0 0 8-8v-32a8 8 0 0 0 -8-8h-32a8 8 0 0 0 -8 8v32a8 8 0 0 0 8 8h8v40h-8a8 8 0 0 0 -8 8v8h-176v-8a8 8 0 0 0 -8-8h-32a8 8 0 0 0 -8 8v32a8 8 0 0 0 8 8h32a8 8 0 0 0 8-8v-8h132.26a125.138 125.138 0 0 0 -27.99 25.35c-20.51 24.87-32.27 56.45-32.27 86.65h-8a8 8 0 0 0 -8 8v32a8 8 0 0 0 8 8h32a8 8 0 0 0 8-8v-32a8 8 0 0 0 -8-8h-8c0-59.32 45.64-106.11 88-111.48v7.48a8 8 0 0 0 8 8h32a8 8 0 0 0 8-8v-7.51c21.66 2.57 42.45 15.55 59.23 37.2 16.33 21.05 26.7 48.31 28.49 74.31h-7.72a8 8 0 0 0 -8 8v32a8 8 0 0 0 8 8h32a8 8 0 0 0 8-8v-32a8 8 0 0 0 -8-8h-8.25c-1.75-29.71-13.14-59.97-31.87-84.12a126.392 126.392 0 0 0 -29.4-27.88h132.52a8.258 8.258 0 0 0 1-.07v8.07a8 8 0 0 0 8 8h32a8 8 0 0 0 8-8v-32a8 8 0 0 0 -8-8zm-456 32h-16v-16h16zm104 144h-16v-16h16zm104-248h16v16h-16zm16 104h-16v-16h16zm104 128h16v16h-16zm120-128h-16v-16h16z"/></g></g></svg>